<?xml version="1.0" standalone="no"?><!DOCTYPE svg PUBLIC "-//W3C//DTD SVG 1.1//EN" "http://www.w3.org/Graphics/SVG/1.1/DTD/svg11.dtd"><svg t="1724468316481" class="icon" viewBox="0 0 1024 1024" version="1.1" xmlns="http://www.w3.org/2000/svg" p-id="21456" xmlns:xlink="http://www.w3.org/1999/xlink" width="200" height="200"><path d="M293 685.1h433.3V415H293.1l-0.1 270.1z m283.6-207.6c3.8-6.2 11.9-8.1 18.1-4.3l97.5 59.7c6.2 3.8 8.1 11.9 4.4 18.1-2.5 4.1-6.8 6.3-11.2 6.3-2.3 0-4.7-0.6-6.8-1.9L581 495.6c-6.2-3.8-8.2-11.9-4.4-18.1zM467.5 631.3c15.2 0 26.8-14.9 30.6-31.4 0.9-3.9 1.4-7.9 1.4-11.9 0-6.8 5.2-12.3 11.8-13 6.6 0.7 11.8 6.2 11.8 13 0 3.4 0.7 7.2 1.8 11.2 4.5 15.2 16.7 32.1 30.2 32.1 18.9 0 32-22.8 32-43.3 0-7.3 5.9-13.1 13.1-13.1 7.3 0 13.2 5.9 13.2 13.1 0 33.5-22.3 69.6-58.3 69.6-17.9 0-32.7-10.9-42.9-25.3-10.1 14.8-25.4 25.3-44.8 25.3-35.1 0-58.3-41.9-58.3-69.6 0-7.3 5.9-13.1 13.1-13.1 7.3 0 13.2 5.9 13.2 13.1 0.1 16.3 15.1 43.3 32.1 43.3zM328.4 525.1l88.2-42.2c6.5-3.2 14.4-0.4 17.5 6.2 3.1 6.6 0.4 14.4-6.2 17.5l-88.2 42.2c-1.8 0.9-3.8 1.3-5.7 1.3-4.9 0-9.6-2.8-11.9-7.5-3-6.5-0.2-14.3 6.3-17.5zM301.1 797.1c5.4 5.7 11.9 6.3 15.7 6.3 5 0 12.6-0.5 19.1-7.5 3.5-3.7 7.4-12.4 9.5-16.9h-54.1c1.9 4.5 6 14.2 9.8 18.1zM686.8 797.1c5.4 5.7 12 6.3 15.7 6.3 5 0 12.6-0.5 19.1-7.5 3.5-3.7 7.4-12.4 9.5-16.9H677c2 4.5 6.1 14.2 9.8 18.1z" fill="#40B9FF" p-id="21457"></path><path d="M511.2 62.7c-247.4 0-447.9 200.5-447.9 447.9s200.5 447.9 447.9 447.9S959.1 758 959.1 510.6 758.6 62.7 511.2 62.7z m311.7 710.6c-2.2 2.2-6.2 5.6-12.4 5.6H758c-2.7 12.2-10.4 29-17.2 36.2-10.4 11.2-24.8 17.2-38.4 17.2-11.9 0-24.8-5.4-34.6-15.6-7-7.3-14.9-25.6-17.2-37.8H372.3c-2.7 12.2-10.4 29-17.2 36.2-10.4 11.2-24.8 17.2-38.4 17.2-11.9 0-24.8-5.4-34.6-15.6-7-7.3-14.9-25.6-17.2-37.8h-46.4c-12.1 0-23.9-11.2-23.9-23.3v-412c0-12.1 11.8-26.2 23.9-26.2H436l-133.6-69.2c-8.6-4.6-11.8-13.3-7.2-21.8 4.6-8.5 15.2-12.3 23.7-7.8l187.4 98.7c1.2 0.7 2.3 0.2 3.3 0.2H545l106.3-151.9c5.5-8 16.4-8.3 24.4-2.8 8 5.5 10 15.4 4.4 23.3l-92.5 131.4h222.9c6.3 0 10.2 4.8 12.4 7.1 5.1 5.2 5 13.9 4.9 17.8v415c0.1 3.8 0.2 10.8-4.9 15.9z" fill="#40B9FF" p-id="21458"></path><path d="M568.7 345.6H219v405.1h441.5c1 0 2-0.3 3-0.3 0.6 0 1.3 0.3 1.9 0.3h77.8c0.9 0 1.8-0.3 2.7-0.3 0.9 0 1.8 0.3 2.7 0.3h50.9V345.6H568.7z m187.7 348.1c0.7 3.7 3.7 10.2-1.2 16.1-2.8 3.4-7 4.3-11.6 4.3H284.3c-8.1 0-24.1-3.9-24.1-20.8V412.6c0-14.4 15.4-22 24.1-22h459.3c4.9 0 8.7 2.6 11.6 6.2 4.6 5.8 2.6 12.9 1.9 15.7l-1 1-1.5 279.7c0-0.1 1.7 0 1.8 0.5z" fill="#40B9FF" p-id="21459"></path></svg>