<?xml version="1.0" standalone="no"?><!DOCTYPE svg PUBLIC "-//W3C//DTD SVG 1.1//EN" "http://www.w3.org/Graphics/SVG/1.1/DTD/svg11.dtd"><svg t="1724468769494" class="icon" viewBox="0 0 1024 1024" version="1.1" xmlns="http://www.w3.org/2000/svg" p-id="25733" xmlns:xlink="http://www.w3.org/1999/xlink" width="200" height="200"><path d="M512 992C246.896 992 32 777.104 32 512S246.896 32 512 32s480 214.896 480 480-214.896 480-480 480z m242.952-533.328H482.383a23.712 23.712 0 0 0-23.71 23.712l-0.025 59.256c0 13.08 10.608 23.712 23.688 23.712h165.96c13.104 0 23.712 10.608 23.712 23.688v11.856a71.112 71.112 0 0 1-71.112 71.112H375.68a23.712 23.712 0 0 1-23.688-23.712V423.128a71.112 71.112 0 0 1 71.088-71.112h331.824a23.712 23.712 0 0 0 23.688-23.712l0.072-59.256a23.712 23.712 0 0 0-23.688-23.712H423.08a177.769 177.769 0 0 0-177.769 177.792v331.825c0 13.104 10.609 23.712 23.713 23.712h349.632A159.984 159.984 0 0 0 778.64 618.681V482.36a23.712 23.712 0 0 0-23.712-23.688z" fill="#515151" p-id="25734"></path></svg>